<svg xmlns="http://www.w3.org/2000/svg" width="16" height="16" viewBox="0 0 16 16">
  <defs>
    <linearGradient id="grad1" x1="0%" y1="0%" x2="100%" y2="100%">
      <stop offset="0%" style="stop-color:#4CAF50;stop-opacity:1" />
      <stop offset="100%" style="stop-color:#2E7D32;stop-opacity:1" />
    </linearGradient>
  </defs>
  <!-- File base -->
  <path d="M3 1h7l3 3v11a1 1 0 01-1 1H3a1 1 0 01-1-1V2a1 1 0 011-1z" fill="url(#grad1)"/>
  <!-- Folded corner -->
  <path d="M10 1v3h3" fill="none" stroke="#1B5E20" stroke-width="0.5"/>
  <path d="M10 1l3 3h-3z" fill="#81C784"/>
  <!-- Table grid lines -->
  <line x1="4" y1="6" x2="11" y2="6" stroke="white" stroke-width="0.6"/>
  <line x1="4" y1="8.5" x2="11" y2="8.5" stroke="white" stroke-width="0.4" opacity="0.7"/>
  <line x1="4" y1="11" x2="11" y2="11" stroke="white" stroke-width="0.4" opacity="0.7"/>
  <line x1="6.5" y1="6" x2="6.5" y2="13" stroke="white" stroke-width="0.4" opacity="0.7"/>
  <line x1="9" y1="6" x2="9" y2="13" stroke="white" stroke-width="0.4" opacity="0.7"/>
  <!-- CSV label -->
  <rect x="4" y="6" width="7" height="2" fill="white" opacity="0.9"/>
  <text x="7.5" y="7.7" font-family="Arial" font-size="2" fill="#2E7D32" text-anchor="middle" font-weight="bold">CSV</text>
</svg>
